<svg xmlns="http://www.w3.org/2000/svg" xmlns:xlink="http://www.w3.org/1999/xlink" viewBox="0 0 408.11 248.09"><defs><style>.cls-1{fill:#05bad8;}.cls-2{fill:#9baeb5;}.cls-3{opacity:0.2;fill:url(#linear-gradient);}</style><linearGradient id="linear-gradient" x1="197.75" y1="166.91" x2="198.52" y2="324.53" gradientUnits="userSpaceOnUse"><stop offset="0" stop-color="#465966"/><stop offset="0.19" stop-color="#f5f5f5"/><stop offset="0.23" stop-color="#dadddf"/><stop offset="0.3" stop-color="#a6aeb4"/><stop offset="0.36" stop-color="#7c8992"/><stop offset="0.42" stop-color="#5f6f7a"/><stop offset="0.47" stop-color="#4c5f6b"/><stop offset="0.51" stop-color="#465966"/><stop offset="0.57" stop-color="#495c69"/><stop offset="0.62" stop-color="#536470"/><stop offset="0.66" stop-color="#63737e"/><stop offset="0.7" stop-color="#7a8891"/><stop offset="0.74" stop-color="#98a2a9"/><stop offset="0.78" stop-color="#bdc3c7"/><stop offset="0.81" stop-color="#e7e9ea"/><stop offset="0.82" stop-color="#f5f5f5"/><stop offset="1" stop-color="#465966"/></linearGradient></defs><title>Asset 1logo</title><g id="Layer_2" data-name="Layer 2"><g id="Layer_1-2" data-name="Layer 1"><path class="cls-1" d="M88.14,167.55c15.72,0,24.07,11.65,24.07,26,0,1.43-.33,4.62-.33,4.62H71.33c.55,12.2,9.23,18.36,19.12,18.36,9.56,0,16.49-6.49,16.49-6.49l4.4,7.8a33.11,33.11,0,0,1-21.54,7.91c-17.47,0-29.46-12.64-29.46-29.13C60.33,179,72.31,167.55,88.14,167.55Zm13.19,22.64C101,180.63,95.07,176,87.92,176c-8.13,0-14.73,5.06-16.27,14.18Z"/><path class="cls-1" d="M188.2,167.55c15.72,0,24.07,11.65,24.07,26,0,1.43-.33,4.62-.33,4.62H171.39c.55,12.2,9.23,18.36,19.12,18.36,9.56,0,16.49-6.49,16.49-6.49l4.4,7.8a33.11,33.11,0,0,1-21.54,7.91c-17.47,0-29.46-12.64-29.46-29.13C160.4,179,172.38,167.55,188.2,167.55Zm13.19,22.64C201.06,180.63,195.13,176,188,176c-8.13,0-14.73,5.06-16.27,14.18Z"/><path class="cls-2" d="M251.17,167.55c16.6,0,30,12.2,30,29s-13.41,29.24-30,29.24-30-12.31-30-29.24S234.58,167.55,251.17,167.55Zm0,49c10.55,0,19.13-8.35,19.13-20s-8.57-19.78-19.13-19.78S232,185,232,196.57,240.73,216.58,251.17,216.58Z"/><path class="cls-2" d="M384,167.55c15.72,0,24.07,11.65,24.07,26,0,1.43-.33,4.62-.33,4.62H367.23c.55,12.2,9.23,18.36,19.12,18.36,9.56,0,16.49-6.49,16.49-6.49l4.4,7.8a33.11,33.11,0,0,1-21.54,7.91c-17.47,0-29.46-12.64-29.46-29.13C356.23,179,368.21,167.55,384,167.55Zm13.19,22.64C396.9,180.63,391,176,383.82,176c-8.13,0-14.73,5.06-16.27,14.18Z"/><path class="cls-2" d="M320.21,169.6a23.94,23.94,0,0,0-23.94,23.94v31h10.06V196.89l0-3.88a13.87,13.87,0,0,1,27.73.52v31h10.06v-31A23.94,23.94,0,0,0,320.21,169.6Z"/><path class="cls-1" d="M149,169.47a23.92,23.92,0,0,0-22.72,23.88v31h10.06V196.71l0-3.88A13.87,13.87,0,0,1,149,179.53Z"/><path class="cls-1" d="M55.17,168.87H43.64L30.12,205.36l-.14.41-2.15,5.43c-.34-1.26-1.08-3.86-1.89-5.95L12,168.87H0l23,54.36-1.17,2.94-1.45,3.6a13.87,13.87,0,0,1-16.65,7.7L.07,246.82A23.92,23.92,0,0,0,30,233l11.42-29.46h0Z"/><path class="cls-1" d="M200.9,69.66,132.62,9c-3.62-3.21-9.55-2.44-13.25,1.72L104.18,27.84C100.48,32,100.41,38,104,41.2L163.6,94l33.55,29.73c1.87,1.69,9,8.45,9,13.68v-5.66h0l.1-46.83C206.47,78.88,205.08,73.37,200.9,69.66Z"/><path class="cls-1" d="M194.74,124.93,161.19,95.2v45.71A10.08,10.08,0,0,0,171.27,151H193.7a10.08,10.08,0,0,0,10.08-10.08v-2.3C203.73,133.38,196.61,126.62,194.74,124.93Z"/><path class="cls-2" d="M263.81,0H220.72a10.08,10.08,0,0,1,10,8.64c-.07.47-.11,132.63-.11,132.63a10.17,10.17,0,0,0,10.08,10.08h23.15a10.08,10.08,0,0,0,10.08-10.08V10.08A10.08,10.08,0,0,0,263.81,0Z"/><path class="cls-3" d="M196.18,170.85l3.16-2.73A10.12,10.12,0,0,0,196.18,170.85Z"/><path class="cls-2" d="M218.08,1.2h-1.49a10,10,0,0,0-4.84,1.24l-3.16,2.73L172.81,37.78,206.5,67.07l21.66-21.58V11.29A10.08,10.08,0,0,0,218.08,1.2Z"/></g></g></svg>